o Circle
v -1.000000 -0.000000 0.000000
v -0.980785 0.195090 0.000000
v -0.923880 0.382683 0.000000
v -0.831470 0.555570 0.000000
v -0.707107 0.707107 0.000000
v -0.555570 0.831470 0.000000
v -0.382684 0.923880 0.000000
v -0.195090 0.980785 0.000000
v -0.000000 1.000000 0.000000
v 0.195090 0.980785 -0.000000
v 0.382683 0.923880 -0.000000
v 0.555570 0.831470 -0.000000
v 0.707107 0.707107 -0.000000
v 0.831470 0.555570 -0.000000
v 0.923880 0.382684 -0.000000
v 0.980785 0.195090 -0.000000
v 1.000000 0.000000 -0.000000
v 0.980785 -0.195090 -0.000000
v 0.923880 -0.382683 -0.000000
v 0.831470 -0.555570 -0.000000
v 0.707107 -0.707107 -0.000000
v 0.555570 -0.831470 -0.000000
v 0.382684 -0.923880 -0.000000
v 0.195090 -0.980785 -0.000000
v 0.000000 -1.000000 0.000000
v -0.195090 -0.980785 0.000000
v -0.382683 -0.923880 0.000000
v -0.555570 -0.831470 0.000000
v -0.707107 -0.707107 0.000000
v -0.831470 -0.555570 0.000000
v -0.923880 -0.382684 0.000000
v -0.980785 -0.195090 0.000000
f 2 1 32
f 3 2 32
f 13 20 15
f 32 31 30
f 4 32 30
f 5 4 30
f 4 3 32
f 30 29 28
f 6 30 28
f 7 6 28
f 7 28 27
f 8 7 27
f 8 27 26
f 9 8 26
f 9 26 25
f 10 9 25
f 10 25 24
f 11 10 24
f 11 24 23
f 12 11 23
f 12 23 22
f 13 12 22
f 21 20 22
f 6 5 30
f 20 13 22
f 14 13 15
f 15 20 19
f 16 15 19
f 16 19 18
f 17 16 18